<mxfile host="app.diagrams.net" modified="2022-10-11T03:01:40.328Z" agent="5.0 (Windows NT 10.0; Win64; x64) AppleWebKit/537.36 (KHTML, like Gecko) Chrome/106.0.0.0 Safari/537.36 Edg/106.0.1370.37" etag="dz69qG5bkPNeGFFDeCKc" version="20.3.3" type="github">
  <diagram id="Q_B-asGYfqvu3phcPPcS" name="第 1 页">
    <mxGraphModel dx="1020" dy="1104" grid="1" gridSize="10" guides="1" tooltips="1" connect="1" arrows="1" fold="1" page="1" pageScale="1" pageWidth="827" pageHeight="1169" math="0" shadow="0">
      <root>
        <mxCell id="0" />
        <mxCell id="1" parent="0" />
        <mxCell id="F8Bh1zf5dvGcyn5yGr6H-26" style="edgeStyle=orthogonalEdgeStyle;rounded=0;orthogonalLoop=1;jettySize=auto;html=1;entryX=0;entryY=0.5;entryDx=0;entryDy=0;" edge="1" parent="1" source="F8Bh1zf5dvGcyn5yGr6H-32" target="F8Bh1zf5dvGcyn5yGr6H-35">
          <mxGeometry relative="1" as="geometry">
            <Array as="points">
              <mxPoint x="155" y="290" />
            </Array>
          </mxGeometry>
        </mxCell>
        <mxCell id="F8Bh1zf5dvGcyn5yGr6H-27" value="申请信息" style="edgeLabel;html=1;align=center;verticalAlign=middle;resizable=0;points=[];" vertex="1" connectable="0" parent="F8Bh1zf5dvGcyn5yGr6H-26">
          <mxGeometry x="0.2" y="-2" relative="1" as="geometry">
            <mxPoint as="offset" />
          </mxGeometry>
        </mxCell>
        <mxCell id="F8Bh1zf5dvGcyn5yGr6H-28" style="edgeStyle=orthogonalEdgeStyle;rounded=0;orthogonalLoop=1;jettySize=auto;html=1;exitX=1;exitY=0.5;exitDx=0;exitDy=0;entryX=0;entryY=0.5;entryDx=0;entryDy=0;" edge="1" parent="1" source="F8Bh1zf5dvGcyn5yGr6H-32" target="F8Bh1zf5dvGcyn5yGr6H-41">
          <mxGeometry relative="1" as="geometry" />
        </mxCell>
        <mxCell id="F8Bh1zf5dvGcyn5yGr6H-29" value="申请信息" style="edgeLabel;html=1;align=center;verticalAlign=middle;resizable=0;points=[];" vertex="1" connectable="0" parent="F8Bh1zf5dvGcyn5yGr6H-28">
          <mxGeometry x="-0.2308" y="1" relative="1" as="geometry">
            <mxPoint as="offset" />
          </mxGeometry>
        </mxCell>
        <mxCell id="F8Bh1zf5dvGcyn5yGr6H-32" value="学生/教职工" style="rounded=0;whiteSpace=wrap;html=1;" vertex="1" parent="1">
          <mxGeometry x="110" y="350" width="90" height="60" as="geometry" />
        </mxCell>
        <mxCell id="F8Bh1zf5dvGcyn5yGr6H-33" style="edgeStyle=orthogonalEdgeStyle;rounded=0;orthogonalLoop=1;jettySize=auto;html=1;entryX=0.5;entryY=0;entryDx=0;entryDy=0;" edge="1" parent="1" source="F8Bh1zf5dvGcyn5yGr6H-35" target="F8Bh1zf5dvGcyn5yGr6H-50">
          <mxGeometry relative="1" as="geometry">
            <mxPoint x="605" y="350" as="targetPoint" />
          </mxGeometry>
        </mxCell>
        <mxCell id="F8Bh1zf5dvGcyn5yGr6H-34" value="确认信息" style="edgeLabel;html=1;align=center;verticalAlign=middle;resizable=0;points=[];" vertex="1" connectable="0" parent="F8Bh1zf5dvGcyn5yGr6H-33">
          <mxGeometry x="-0.3961" y="-2" relative="1" as="geometry">
            <mxPoint as="offset" />
          </mxGeometry>
        </mxCell>
        <mxCell id="F8Bh1zf5dvGcyn5yGr6H-57" style="edgeStyle=orthogonalEdgeStyle;rounded=0;orthogonalLoop=1;jettySize=auto;html=1;exitX=0;exitY=0;exitDx=0;exitDy=0;entryX=0.25;entryY=0;entryDx=0;entryDy=0;" edge="1" parent="1" source="F8Bh1zf5dvGcyn5yGr6H-35" target="F8Bh1zf5dvGcyn5yGr6H-32">
          <mxGeometry relative="1" as="geometry" />
        </mxCell>
        <mxCell id="F8Bh1zf5dvGcyn5yGr6H-58" value="信息" style="edgeLabel;html=1;align=center;verticalAlign=middle;resizable=0;points=[];" vertex="1" connectable="0" parent="F8Bh1zf5dvGcyn5yGr6H-57">
          <mxGeometry x="-0.1146" relative="1" as="geometry">
            <mxPoint as="offset" />
          </mxGeometry>
        </mxCell>
        <mxCell id="F8Bh1zf5dvGcyn5yGr6H-35" value="查询" style="ellipse;whiteSpace=wrap;html=1;aspect=fixed;" vertex="1" parent="1">
          <mxGeometry x="330" y="250" width="80" height="80" as="geometry" />
        </mxCell>
        <mxCell id="F8Bh1zf5dvGcyn5yGr6H-39" style="edgeStyle=orthogonalEdgeStyle;rounded=0;orthogonalLoop=1;jettySize=auto;html=1;" edge="1" parent="1" source="F8Bh1zf5dvGcyn5yGr6H-41">
          <mxGeometry relative="1" as="geometry">
            <mxPoint x="560" y="380" as="targetPoint" />
          </mxGeometry>
        </mxCell>
        <mxCell id="F8Bh1zf5dvGcyn5yGr6H-40" value="确认信息" style="edgeLabel;html=1;align=center;verticalAlign=middle;resizable=0;points=[];" vertex="1" connectable="0" parent="F8Bh1zf5dvGcyn5yGr6H-39">
          <mxGeometry x="-0.2267" y="-1" relative="1" as="geometry">
            <mxPoint x="22" y="-1" as="offset" />
          </mxGeometry>
        </mxCell>
        <mxCell id="F8Bh1zf5dvGcyn5yGr6H-59" style="edgeStyle=orthogonalEdgeStyle;rounded=0;orthogonalLoop=1;jettySize=auto;html=1;exitX=0.05;exitY=0.75;exitDx=0;exitDy=0;entryX=1.011;entryY=0.9;entryDx=0;entryDy=0;entryPerimeter=0;exitPerimeter=0;" edge="1" parent="1" source="F8Bh1zf5dvGcyn5yGr6H-41" target="F8Bh1zf5dvGcyn5yGr6H-32">
          <mxGeometry relative="1" as="geometry">
            <Array as="points">
              <mxPoint x="201" y="400" />
            </Array>
          </mxGeometry>
        </mxCell>
        <mxCell id="F8Bh1zf5dvGcyn5yGr6H-61" value="反馈" style="edgeLabel;html=1;align=center;verticalAlign=middle;resizable=0;points=[];" vertex="1" connectable="0" parent="F8Bh1zf5dvGcyn5yGr6H-59">
          <mxGeometry x="0.1825" y="-1" relative="1" as="geometry">
            <mxPoint as="offset" />
          </mxGeometry>
        </mxCell>
        <mxCell id="F8Bh1zf5dvGcyn5yGr6H-41" value="充值" style="ellipse;whiteSpace=wrap;html=1;aspect=fixed;" vertex="1" parent="1">
          <mxGeometry x="330" y="340" width="80" height="80" as="geometry" />
        </mxCell>
        <mxCell id="F8Bh1zf5dvGcyn5yGr6H-54" style="edgeStyle=orthogonalEdgeStyle;rounded=0;orthogonalLoop=1;jettySize=auto;html=1;exitX=0;exitY=0.75;exitDx=0;exitDy=0;entryX=0.963;entryY=0.7;entryDx=0;entryDy=0;entryPerimeter=0;" edge="1" parent="1" source="F8Bh1zf5dvGcyn5yGr6H-50" target="F8Bh1zf5dvGcyn5yGr6H-41">
          <mxGeometry relative="1" as="geometry">
            <mxPoint x="400" y="390" as="targetPoint" />
            <Array as="points">
              <mxPoint x="560" y="396" />
            </Array>
          </mxGeometry>
        </mxCell>
        <mxCell id="F8Bh1zf5dvGcyn5yGr6H-62" value="信息" style="edgeLabel;html=1;align=center;verticalAlign=middle;resizable=0;points=[];" vertex="1" connectable="0" parent="F8Bh1zf5dvGcyn5yGr6H-54">
          <mxGeometry x="0.2471" y="4" relative="1" as="geometry">
            <mxPoint as="offset" />
          </mxGeometry>
        </mxCell>
        <mxCell id="F8Bh1zf5dvGcyn5yGr6H-55" style="edgeStyle=orthogonalEdgeStyle;rounded=0;orthogonalLoop=1;jettySize=auto;html=1;exitX=0.75;exitY=0;exitDx=0;exitDy=0;entryX=0.5;entryY=0;entryDx=0;entryDy=0;" edge="1" parent="1" source="F8Bh1zf5dvGcyn5yGr6H-50" target="F8Bh1zf5dvGcyn5yGr6H-35">
          <mxGeometry relative="1" as="geometry" />
        </mxCell>
        <mxCell id="F8Bh1zf5dvGcyn5yGr6H-56" value="信息" style="edgeLabel;html=1;align=center;verticalAlign=middle;resizable=0;points=[];" vertex="1" connectable="0" parent="F8Bh1zf5dvGcyn5yGr6H-55">
          <mxGeometry x="0.2857" y="-4" relative="1" as="geometry">
            <mxPoint as="offset" />
          </mxGeometry>
        </mxCell>
        <mxCell id="F8Bh1zf5dvGcyn5yGr6H-50" value="饭卡信息数据" style="shape=partialRectangle;whiteSpace=wrap;html=1;left=0;right=0;fillColor=none;" vertex="1" parent="1">
          <mxGeometry x="560" y="350" width="120" height="60" as="geometry" />
        </mxCell>
      </root>
    </mxGraphModel>
  </diagram>
</mxfile>
